<?xml version="1.0" encoding="UTF-8" standalone="no" ?>
<!DOCTYPE svg PUBLIC "-//W3C//DTD SVG 1.1//EN" "http://www.w3.org/Graphics/SVG/1.1/DTD/svg11.dtd">
<svg xmlns="http://www.w3.org/2000/svg" xmlns:xlink="http://www.w3.org/1999/xlink" version="1.1" width="256" height="64" viewBox="0 0 256 64" xml:space="preserve">
<desc>Created with Fabric.js 5.3.0</desc>
<defs>
</defs>
<g transform="matrix(1.9654 0 0 1.9654 32 32)" id="jWOc-AuIFdB4vDDci9OoT"  >
<path style="stroke: rgb(23,27,215); stroke-width: 0; stroke-dasharray: none; stroke-linecap: butt; stroke-dashoffset: 0; stroke-linejoin: miter; stroke-miterlimit: 4; fill: rgb(0,134,24); fill-rule: nonzero; opacity: 1;" vector-effect="non-scaling-stroke"  transform=" translate(0, 0)" d="M 0 -15.77287 C 8.70662 -15.77287 15.77287 -8.70662 15.77287 0 C 15.77287 8.70662 8.70662 15.77287 0 15.77287 C -8.70662 15.77287 -15.77287 8.70662 -15.77287 0 C -15.77287 -8.70662 -8.70662 -15.77287 0 -15.77287 z" stroke-linecap="round" />
</g>
<g transform="matrix(1 0 0 1 17 24)" id="0aFVEZL39fMWi8ROtPjNM"  >
<path style="stroke: rgb(215,74,23); stroke-width: 1; stroke-dasharray: none; stroke-linecap: butt; stroke-dashoffset: 0; stroke-linejoin: miter; stroke-miterlimit: 4; fill: rgb(255,229,0); fill-rule: nonzero; opacity: 1;" vector-effect="non-scaling-stroke"  transform=" translate(-10, -10)" d="M 10 0 C 15.52 0 20 4.48 20 10 C 20 15.52 15.52 20 10 20 C 4.48 20 0 15.52 0 10 C 0 4.48 4.48 0 10 0 z M 6 10 C 6 12.208 7.792 14 10 14 C 12.208 14 14 12.208 14 10 C 14 7.792 12.208 6 10 6 C 7.792 6 6 7.792 6 10 z" stroke-linecap="round" />
</g>
<g transform="matrix(1 0 0 1 17 24)" id="0Jo7axkST9A08fWCVLxQR"  >
<path style="stroke: rgb(23,27,215); stroke-width: 1; stroke-dasharray: none; stroke-linecap: butt; stroke-dashoffset: 0; stroke-linejoin: miter; stroke-miterlimit: 4; fill: rgb(0,0,0); fill-rule: nonzero; opacity: 1;" vector-effect="non-scaling-stroke"  transform=" translate(-4, -4)" d="M 4 0 C 6.208 0 8 1.792 8 4 C 8 6.208 6.208 8 4 8 C 1.7919999999999998 8 0 6.208 0 4 C 0 1.7919999999999998 1.792 0 4 0 z" stroke-linecap="round" />
</g>
<g transform="matrix(0.0634 0 0 0.0634 16 23)" id="EuHopzj8dUVkm8Eb0RyVn"  >
<path style="stroke: rgb(23,27,215); stroke-width: 0; stroke-dasharray: none; stroke-linecap: butt; stroke-dashoffset: 0; stroke-linejoin: miter; stroke-miterlimit: 4; fill: rgb(240,240,240); fill-rule: nonzero; opacity: 1;" vector-effect="non-scaling-stroke"  transform=" translate(0, 0)" d="M 0 -15.77287 C 8.70662 -15.77287 15.77287 -8.70662 15.77287 0 C 15.77287 8.70662 8.70662 15.77287 0 15.77287 C -8.70662 15.77287 -15.77287 8.70662 -15.77287 0 C -15.77287 -8.70662 -8.70662 -15.77287 0 -15.77287 z" stroke-linecap="round" />
</g>
<g transform="matrix(1 0 0 1 46.5 24)" id="2BHCjgdS1wpFzSSjcETBc"  >
<path style="stroke: rgb(23,27,215); stroke-width: 1; stroke-dasharray: none; stroke-linecap: butt; stroke-dashoffset: 0; stroke-linejoin: miter; stroke-miterlimit: 4; fill: rgb(0,0,0); fill-rule: nonzero; opacity: 1;" vector-effect="non-scaling-stroke"  transform=" translate(-4, -4)" d="M 4 0 C 6.208 0 8 1.792 8 4 C 8 6.208 6.208 8 4 8 C 1.7919999999999998 8 0 6.208 0 4 C 0 1.7919999999999998 1.792 0 4 0 z" stroke-linecap="round" />
</g>
<g transform="matrix(1 0 0 1 46.5 24)" id="-yfUaMQTgh5_hJSoaXXXb"  >
<path style="stroke: rgb(215,74,23); stroke-width: 1; stroke-dasharray: none; stroke-linecap: butt; stroke-dashoffset: 0; stroke-linejoin: miter; stroke-miterlimit: 4; fill: rgb(255,229,0); fill-rule: nonzero; opacity: 1;" vector-effect="non-scaling-stroke"  transform=" translate(-10, -10)" d="M 10 0 C 15.52 0 20 4.48 20 10 C 20 15.52 15.52 20 10 20 C 4.48 20 0 15.52 0 10 C 0 4.48 4.48 0 10 0 z M 6 10 C 6 12.208 7.792 14 10 14 C 12.208 14 14 12.208 14 10 C 14 7.792 12.208 6 10 6 C 7.792 6 6 7.792 6 10 z" stroke-linecap="round" />
</g>
<g transform="matrix(1 0 0 1.0333333333 224 31.9999999991)" id="-Dn6pV9DvfqDN1dP7LYQv"  >
<path style="stroke: rgb(209,144,4); stroke-width: 0; stroke-dasharray: none; stroke-linecap: butt; stroke-dashoffset: 0; stroke-linejoin: miter; stroke-miterlimit: 4; fill: rgb(255,255,255); fill-rule: nonzero; opacity: 1;" vector-effect="non-scaling-stroke"  transform=" translate(-31, -30)" d="M 31 0 C 48.111999999999995 0 62 13.44 62 30 C 62 46.56 48.112 60 31 60 C 13.888000000000002 60 0 46.56 0 30 C 0 13.440000000000001 13.888 0 31 0 z M 47.00001 39.00004 C 47.00001 38.19388 45.301280000000006 37.46165 42.538810000000005 36.92243 L 41.00000000000001 40.00004 L 39.21262000000001 36.42528 C 38.773480000000006 36.3759 38.320690000000006 36.33036 37.85556000000001 36.28891 L 36.000000000000014 40.00003 L 34.026840000000014 36.05371 C 33.68447000000001 36.0414 33.33823000000002 36.03114 32.98851000000001 36.023 L 31.00000000000001 40.000020000000006 L 29.01149000000001 36.023 C 28.661770000000008 36.03114 28.31553000000001 36.0414 27.97316000000001 36.05371 L 26.00000000000001 40.00003 L 24.14444000000001 36.28891 C 23.67931000000001 36.33037 23.22652000000001 36.3759 22.78738000000001 36.42528 L 21.00000000000001 40.00004 L 19.46119000000001 36.92243 C 16.69873000000001 37.46165 15.000000000000009 38.19388 15.000000000000009 39.00004 C 15.000000000000009 40.65604 22.16800000000001 42.00004 31.000000000000007 42.00004 C 39.83200000000001 42.00004 47.00000000000001 40.65604 47.00000000000001 39.00004 z" stroke-linecap="round" />
</g>
<g transform="matrix(1.1272727273 0 0 1.1272727273 224 32.0000000007)" id="uZxBrq52lNEj1yFpIK1FY"  >
<radialGradient id="SVGID_305_0" gradientUnits="userSpaceOnUse" gradientTransform="matrix(1 0 0 1 0 0)"  cx="27.77984125368205" cy="28.541009463364546" r="27.346850333027003" fx="27.77984125368205" fy="28.541009463364546">
<stop offset="0%" style="stop-color:#008618;stop-opacity: 1"/>
<stop offset="68.32099283249067%" style="stop-color:#008618;stop-opacity: 1"/>
<stop offset="100%" style="stop-color:#000000;stop-opacity: 1"/>
</radialGradient>
<path style="stroke: rgb(23,27,215); stroke-width: 0; stroke-dasharray: none; stroke-linecap: butt; stroke-dashoffset: 0; stroke-linejoin: miter; stroke-miterlimit: 4; fill: url(#SVGID_305_0); fill-rule: nonzero; opacity: 1;" vector-effect="non-scaling-stroke"  transform=" translate(-27.5, -27.5)" d="M 27.5 0 C 42.68 0 55 12.32 55 27.5 C 55 42.68 42.68 55 27.5 55 C 12.32 55 0 42.68 0 27.5 C 0 12.32 12.32 0 27.5 0 z M 12 37 C 12 38.656 19.168 40 28 40 C 36.832 40 44 38.656 44 37 C 44 35.344 36.832 34 28 34 C 19.168 34 12 35.344 12 37 z" stroke-linecap="round" />
</g>
<g transform="matrix(0.0634000027 0 0 0.0634000027 46.5 23.5)" id="_yGAdT8DVKePtkQhjzR01"  >
<path style="stroke: rgb(23,27,215); stroke-width: 0; stroke-dasharray: none; stroke-linecap: butt; stroke-dashoffset: 0; stroke-linejoin: miter; stroke-miterlimit: 4; fill: rgb(240,240,240); fill-rule: nonzero; opacity: 1;" vector-effect="non-scaling-stroke"  transform=" translate(0, 0)" d="M 0 -15.77287 C 8.70662 -15.77287 15.77287 -8.70662 15.77287 0 C 15.77287 8.70662 8.70662 15.77287 0 15.77287 C -8.70662 15.77287 -15.77287 8.70662 -15.77287 0 C -15.77287 -8.70662 -8.70662 -15.77287 0 -15.77287 z" stroke-linecap="round" />
</g>
<g transform="matrix(1 0 0 1 209.0000000004 24.0000000007)" id="7qMODycs20QsdGPCSdX8J"  >
<path style="stroke: rgb(215,74,23); stroke-width: 1; stroke-dasharray: none; stroke-linecap: butt; stroke-dashoffset: 0; stroke-linejoin: miter; stroke-miterlimit: 4; fill: rgb(255,229,0); fill-rule: nonzero; opacity: 1;" vector-effect="non-scaling-stroke"  transform=" translate(-10, -10)" d="M 10 0 C 15.52 0 20 4.48 20 10 C 20 15.52 15.52 20 10 20 C 4.48 20 0 15.52 0 10 C 0 4.48 4.48 0 10 0 z M 6 10 C 6 12.208 7.792 14 10 14 C 12.208 14 14 12.208 14 10 C 14 7.792 12.208 6 10 6 C 7.792 6 6 7.792 6 10 z" stroke-linecap="round" />
</g>
<g transform="matrix(1.5 0 0 1.5 209.0000000004 24.0000000007)" id="_HotjCFnw5SxtVyMKGskL"  >
<path style="stroke: rgb(255,0,14); stroke-width: 1; stroke-dasharray: none; stroke-linecap: butt; stroke-dashoffset: 0; stroke-linejoin: miter; stroke-miterlimit: 4; fill: rgb(0,0,0); fill-rule: nonzero; opacity: 1;" vector-effect="non-scaling-stroke"  transform=" translate(-4, -4)" d="M 4 0 C 6.208 0 8 1.792 8 4 C 8 6.208 6.208 8 4 8 C 1.7919999999999998 8 0 6.208 0 4 C 0 1.7919999999999998 1.792 0 4 0 z" stroke-linecap="round" />
</g>
<g transform="matrix(1.1874996289 0 0 1.3384551551 223.9999999993 43)" id="1jNetWvUsybtfDnSjC4Jz"  >
<path style="stroke: rgb(23,27,215); stroke-width: 0; stroke-dasharray: none; stroke-linecap: butt; stroke-dashoffset: 0; stroke-linejoin: miter; stroke-miterlimit: 4; fill: rgb(1,0,0); fill-rule: nonzero; opacity: 1;" vector-effect="non-scaling-stroke"  transform=" translate(-16.000005, -2.9885)" d="M 32 2.97702 C 32 4.63302 24.832 5.9770199999999996 16 5.9770199999999996 C 7.167999999999999 5.9770199999999996 0 4.633019999999999 0 2.9770199999999996 C 0 2.1708599999999993 1.69873 1.4386299999999996 4.46119 0.8994099999999996 L 6 3.9770199999999996 L 7.78738 0.4022599999999996 C 8.226519999999999 0.35287999999999964 8.67931 0.3073499999999996 9.14444 0.2658899999999996 L 11 3.97701 L 12.97316 0.030689999999999884 C 13.31553 0.018379999999999883 13.66177 0.008119999999999884 14.01149 -0.000020000000000117146 L 16 3.977 L 17.98851 -0.000020000000000131024 C 18.338230000000003 0.008119999999999869 18.68447 0.01837999999999987 19.02684 0.03068999999999987 L 21 3.97701 L 22.85556 0.26588999999999974 C 23.32069 0.3073399999999997 23.77348 0.35287999999999975 24.21262 0.40225999999999973 L 26 3.9770199999999996 L 27.53881 0.8994099999999996 C 30.301280000000002 1.4386299999999996 32.00001 2.1708599999999993 32.00001 2.9770199999999996 z" stroke-linecap="round" />
</g>
<g transform="matrix(0.0634 0 0 0.0634 208.0000000004 23.0000000007)" id="Tg0r9AEHqprAYBdgZENtQ"  >
<path style="stroke: rgb(23,27,215); stroke-width: 0; stroke-dasharray: none; stroke-linecap: butt; stroke-dashoffset: 0; stroke-linejoin: miter; stroke-miterlimit: 4; fill: rgb(240,240,240); fill-rule: nonzero; opacity: 1;" vector-effect="non-scaling-stroke"  transform=" translate(0, 0)" d="M 0 -15.77287 C 8.70662 -15.77287 15.77287 -8.70662 15.77287 0 C 15.77287 8.70662 8.70662 15.77287 0 15.77287 C -8.70662 15.77287 -15.77287 8.70662 -15.77287 0 C -15.77287 -8.70662 -8.70662 -15.77287 0 -15.77287 z" stroke-linecap="round" />
</g>
<g transform="matrix(1 0 0 1 238.4999999996 24.0000000007)" id="sHMiOhKV0GPQO14DB6mr1"  >
<path style="stroke: rgb(215,74,23); stroke-width: 1; stroke-dasharray: none; stroke-linecap: butt; stroke-dashoffset: 0; stroke-linejoin: miter; stroke-miterlimit: 4; fill: rgb(255,229,0); fill-rule: nonzero; opacity: 1;" vector-effect="non-scaling-stroke"  transform=" translate(-10, -10)" d="M 10 0 C 15.52 0 20 4.48 20 10 C 20 15.52 15.52 20 10 20 C 4.48 20 0 15.52 0 10 C 0 4.48 4.48 0 10 0 z M 6 10 C 6 12.208 7.792 14 10 14 C 12.208 14 14 12.208 14 10 C 14 7.792 12.208 6 10 6 C 7.792 6 6 7.792 6 10 z" stroke-linecap="round" />
</g>
<g transform="matrix(1.5 0 0 1.5 238.4999999996 24.0000000007)" id="JToEDyNwhplQfO_etgG6T"  >
<path style="stroke: rgb(255,0,14); stroke-width: 1; stroke-dasharray: none; stroke-linecap: butt; stroke-dashoffset: 0; stroke-linejoin: miter; stroke-miterlimit: 4; fill: rgb(0,0,0); fill-rule: nonzero; opacity: 1;" vector-effect="non-scaling-stroke"  transform=" translate(-4, -4)" d="M 4 0 C 6.208 0 8 1.792 8 4 C 8 6.208 6.208 8 4 8 C 1.7919999999999998 8 0 6.208 0 4 C 0 1.7919999999999998 1.792 0 4 0 z" stroke-linecap="round" />
</g>
<g transform="matrix(0.95 0 0 0.05 32 44)" id="bBJOoLXV11surED72b2il"  >
<path style="stroke: rgb(23,27,215); stroke-width: 0; stroke-dasharray: none; stroke-linecap: butt; stroke-dashoffset: 0; stroke-linejoin: miter; stroke-miterlimit: 4; fill: rgb(1,0,0); fill-rule: nonzero; opacity: 1;" vector-effect="non-scaling-stroke"  transform=" translate(0, 0)" d="M 0 -20 C 11.04 -20 20 -11.04 20 0 C 20 11.04 11.04 20 0 20 C -11.04 20 -20 11.04 -20 0 C -20 -11.04 -11.04 -20 0 -20 z" stroke-linecap="round" />
</g>
<g transform="matrix(1.9654 0 0 1.9654 95.999998698 31.999998698)" id="mRirPyEsc_FzXb8jke19M"  >
<path style="stroke: rgb(23,27,215); stroke-width: 0; stroke-dasharray: none; stroke-linecap: butt; stroke-dashoffset: 0; stroke-linejoin: miter; stroke-miterlimit: 4; fill: rgb(0,134,24); fill-rule: nonzero; opacity: 1;" vector-effect="non-scaling-stroke"  transform=" translate(0, 0)" d="M 0 -15.77287 C 8.70662 -15.77287 15.77287 -8.70662 15.77287 0 C 15.77287 8.70662 8.70662 15.77287 0 15.77287 C -8.70662 15.77287 -15.77287 8.70662 -15.77287 0 C -15.77287 -8.70662 -8.70662 -15.77287 0 -15.77287 z" stroke-linecap="round" />
</g>
<g transform="matrix(0.0634 0 0 0.0634 238.4999999996 23.5000000007)" id="rHcv0FPqUtMRFI0Cn8Dcd"  >
<path style="stroke: rgb(23,27,215); stroke-width: 0; stroke-dasharray: none; stroke-linecap: butt; stroke-dashoffset: 0; stroke-linejoin: miter; stroke-miterlimit: 4; fill: rgb(240,240,240); fill-rule: nonzero; opacity: 1;" vector-effect="non-scaling-stroke"  transform=" translate(0, 0)" d="M 0 -15.77287 C 8.70662 -15.77287 15.77287 -8.70662 15.77287 0 C 15.77287 8.70662 8.70662 15.77287 0 15.77287 C -8.70662 15.77287 -15.77287 8.70662 -15.77287 0 C -15.77287 -8.70662 -8.70662 -15.77287 0 -15.77287 z" stroke-linecap="round" />
</g>
<g transform="matrix(1 0 0 1 80.999998698 23.999998698)" id="3L3FrigNat2hNJQBoCniC"  >
<path style="stroke: rgb(215,74,23); stroke-width: 1; stroke-dasharray: none; stroke-linecap: butt; stroke-dashoffset: 0; stroke-linejoin: miter; stroke-miterlimit: 4; fill: rgb(255,229,0); fill-rule: nonzero; opacity: 1;" vector-effect="non-scaling-stroke"  transform=" translate(-10, -10)" d="M 10 0 C 15.52 0 20 4.48 20 10 C 20 15.52 15.52 20 10 20 C 4.48 20 0 15.52 0 10 C 0 4.48 4.48 0 10 0 z M 6 10 C 6 12.208 7.792 14 10 14 C 12.208 14 14 12.208 14 10 C 14 7.792 12.208 6 10 6 C 7.792 6 6 7.792 6 10 z" stroke-linecap="round" />
</g>
<g transform="matrix(1 0 0 1 80.999998698 23.999998698)" id="hgw34uJuDUqCbbRhUx9Gw"  >
<path style="stroke: rgb(23,27,215); stroke-width: 1; stroke-dasharray: none; stroke-linecap: butt; stroke-dashoffset: 0; stroke-linejoin: miter; stroke-miterlimit: 4; fill: rgb(0,0,0); fill-rule: nonzero; opacity: 1;" vector-effect="non-scaling-stroke"  transform=" translate(-4, -4)" d="M 4 0 C 6.208 0 8 1.792 8 4 C 8 6.208 6.208 8 4 8 C 1.7919999999999998 8 0 6.208 0 4 C 0 1.7919999999999998 1.792 0 4 0 z" stroke-linecap="round" />
</g>
<g transform="matrix(0.0634 0 0 0.0634 79.999998698 22.999998698)" id="6yYf6ANtFHnetGgARzicR"  >
<path style="stroke: rgb(23,27,215); stroke-width: 0; stroke-dasharray: none; stroke-linecap: butt; stroke-dashoffset: 0; stroke-linejoin: miter; stroke-miterlimit: 4; fill: rgb(240,240,240); fill-rule: nonzero; opacity: 1;" vector-effect="non-scaling-stroke"  transform=" translate(0, 0)" d="M 0 -15.77287 C 8.70662 -15.77287 15.77287 -8.70662 15.77287 0 C 15.77287 8.70662 8.70662 15.77287 0 15.77287 C -8.70662 15.77287 -15.77287 8.70662 -15.77287 0 C -15.77287 -8.70662 -8.70662 -15.77287 0 -15.77287 z" stroke-linecap="round" />
</g>
<g transform="matrix(1 0 0 1 110.499998698 23.999998698)" id="87lOrymrntEorbOQR21oI"  >
<path style="stroke: rgb(215,74,23); stroke-width: 1; stroke-dasharray: none; stroke-linecap: butt; stroke-dashoffset: 0; stroke-linejoin: miter; stroke-miterlimit: 4; fill: rgb(255,229,0); fill-rule: nonzero; opacity: 1;" vector-effect="non-scaling-stroke"  transform=" translate(-10, -10)" d="M 10 0 C 15.52 0 20 4.48 20 10 C 20 15.52 15.52 20 10 20 C 4.48 20 0 15.52 0 10 C 0 4.48 4.48 0 10 0 z M 6 10 C 6 12.208 7.792 14 10 14 C 12.208 14 14 12.208 14 10 C 14 7.792 12.208 6 10 6 C 7.792 6 6 7.792 6 10 z" stroke-linecap="round" />
</g>
<g transform="matrix(1 0 0 1 110.499998698 23.999998698)" id="fSiZvz_7XOJ2MFo811s5j"  >
<path style="stroke: rgb(23,27,215); stroke-width: 1; stroke-dasharray: none; stroke-linecap: butt; stroke-dashoffset: 0; stroke-linejoin: miter; stroke-miterlimit: 4; fill: rgb(0,0,0); fill-rule: nonzero; opacity: 1;" vector-effect="non-scaling-stroke"  transform=" translate(-4, -4)" d="M 4 0 C 6.208 0 8 1.792 8 4 C 8 6.208 6.208 8 4 8 C 1.7919999999999998 8 0 6.208 0 4 C 0 1.7919999999999998 1.792 0 4 0 z" stroke-linecap="round" />
</g>
<g transform="matrix(0.0634 0 0 0.0634 110.499998698 23.499998698)" id="cb8D-MRWQQkiIzftCYPig"  >
<path style="stroke: rgb(23,27,215); stroke-width: 0; stroke-dasharray: none; stroke-linecap: butt; stroke-dashoffset: 0; stroke-linejoin: miter; stroke-miterlimit: 4; fill: rgb(240,240,240); fill-rule: nonzero; opacity: 1;" vector-effect="non-scaling-stroke"  transform=" translate(0, 0)" d="M 0 -15.77287 C 8.70662 -15.77287 15.77287 -8.70662 15.77287 0 C 15.77287 8.70662 8.70662 15.77287 0 15.77287 C -8.70662 15.77287 -15.77287 8.70662 -15.77287 0 C -15.77287 -8.70662 -8.70662 -15.77287 0 -15.77287 z" stroke-linecap="round" />
</g>
<g transform="matrix(0.95 0 0 0.025 95.999998698 43.999998698)" id="Dir_xFZ-YEUZmICudqh-l"  >
<path style="stroke: rgb(23,27,215); stroke-width: 0; stroke-dasharray: none; stroke-linecap: butt; stroke-dashoffset: 0; stroke-linejoin: miter; stroke-miterlimit: 4; fill: rgb(1,0,0); fill-rule: nonzero; opacity: 1;" vector-effect="non-scaling-stroke"  transform=" translate(0, 0)" d="M 0 -20 C 11.04 -20 20 -11.04 20 0 C 20 11.04 11.04 20 0 20 C -11.04 20 -20 11.04 -20 0 C -20 -11.04 -11.04 -20 0 -20 z" stroke-linecap="round" />
</g>
<g transform="matrix(1.9654000825 0 0 1.9654000825 160 32)" id="8n7eeVW1bQmQ17eiBQHcn"  >
<path style="stroke: rgb(23,27,215); stroke-width: 0; stroke-dasharray: none; stroke-linecap: butt; stroke-dashoffset: 0; stroke-linejoin: miter; stroke-miterlimit: 4; fill: rgb(0,134,24); fill-rule: nonzero; opacity: 1;" vector-effect="non-scaling-stroke"  transform=" translate(0, 0)" d="M 0 -15.77287 C 8.70662 -15.77287 15.77287 -8.70662 15.77287 0 C 15.77287 8.70662 8.70662 15.77287 0 15.77287 C -8.70662 15.77287 -15.77287 8.70662 -15.77287 0 C -15.77287 -8.70662 -8.70662 -15.77287 0 -15.77287 z" stroke-linecap="round" />
</g>
<g transform="matrix(1 0 0 1 145 23.999998698)" id="XOBGoA26SFU4quHbpw6FL"  >
<path style="stroke: rgb(215,74,23); stroke-width: 1; stroke-dasharray: none; stroke-linecap: butt; stroke-dashoffset: 0; stroke-linejoin: miter; stroke-miterlimit: 4; fill: rgb(255,229,0); fill-rule: nonzero; opacity: 1;" vector-effect="non-scaling-stroke"  transform=" translate(-10, -10)" d="M 10 0 C 15.52 0 20 4.48 20 10 C 20 15.52 15.52 20 10 20 C 4.48 20 0 15.52 0 10 C 0 4.48 4.48 0 10 0 z M 6 10 C 6 12.208 7.792 14 10 14 C 12.208 14 14 12.208 14 10 C 14 7.792 12.208 6 10 6 C 7.792 6 6 7.792 6 10 z" stroke-linecap="round" />
</g>
<g transform="matrix(1 0 0 1 145 23.999998698)" id="DklvxBKOrhqX-KbMPXH-h"  >
<path style="stroke: rgb(23,27,215); stroke-width: 1; stroke-dasharray: none; stroke-linecap: butt; stroke-dashoffset: 0; stroke-linejoin: miter; stroke-miterlimit: 4; fill: rgb(0,0,0); fill-rule: nonzero; opacity: 1;" vector-effect="non-scaling-stroke"  transform=" translate(-4, -4)" d="M 4 0 C 6.208 0 8 1.792 8 4 C 8 6.208 6.208 8 4 8 C 1.7919999999999998 8 0 6.208 0 4 C 0 1.7919999999999998 1.792 0 4 0 z" stroke-linecap="round" />
</g>
<g transform="matrix(0.0634 0 0 0.0634 144 22.999998698)" id="C9_Efls5vjpy_U_-P6X9f"  >
<path style="stroke: rgb(23,27,215); stroke-width: 0; stroke-dasharray: none; stroke-linecap: butt; stroke-dashoffset: 0; stroke-linejoin: miter; stroke-miterlimit: 4; fill: rgb(240,240,240); fill-rule: nonzero; opacity: 1;" vector-effect="non-scaling-stroke"  transform=" translate(0, 0)" d="M 0 -15.77287 C 8.70662 -15.77287 15.77287 -8.70662 15.77287 0 C 15.77287 8.70662 8.70662 15.77287 0 15.77287 C -8.70662 15.77287 -15.77287 8.70662 -15.77287 0 C -15.77287 -8.70662 -8.70662 -15.77287 0 -15.77287 z" stroke-linecap="round" />
</g>
<g transform="matrix(1 0 0 1 174.5 23.999998698)" id="0tVAIrT9viTsG3X1V2GL7"  >
<path style="stroke: rgb(215,74,23); stroke-width: 1; stroke-dasharray: none; stroke-linecap: butt; stroke-dashoffset: 0; stroke-linejoin: miter; stroke-miterlimit: 4; fill: rgb(255,229,0); fill-rule: nonzero; opacity: 1;" vector-effect="non-scaling-stroke"  transform=" translate(-10, -10)" d="M 10 0 C 15.52 0 20 4.48 20 10 C 20 15.52 15.52 20 10 20 C 4.48 20 0 15.52 0 10 C 0 4.48 4.48 0 10 0 z M 6 10 C 6 12.208 7.792 14 10 14 C 12.208 14 14 12.208 14 10 C 14 7.792 12.208 6 10 6 C 7.792 6 6 7.792 6 10 z" stroke-linecap="round" />
</g>
<g transform="matrix(1 0 0 1 174.5 23.999998698)" id="qcAxFATfN7qShbbzJrCaD"  >
<path style="stroke: rgb(23,27,215); stroke-width: 1; stroke-dasharray: none; stroke-linecap: butt; stroke-dashoffset: 0; stroke-linejoin: miter; stroke-miterlimit: 4; fill: rgb(0,0,0); fill-rule: nonzero; opacity: 1;" vector-effect="non-scaling-stroke"  transform=" translate(-4, -4)" d="M 4 0 C 6.208 0 8 1.792 8 4 C 8 6.208 6.208 8 4 8 C 1.7919999999999998 8 0 6.208 0 4 C 0 1.7919999999999998 1.792 0 4 0 z" stroke-linecap="round" />
</g>
<g transform="matrix(0.0634 0 0 0.0634 175.499998698 23.499998698)" id="iYQYB_BxLZ9xwHHNdGtIv"  >
<path style="stroke: rgb(23,27,215); stroke-width: 0; stroke-dasharray: none; stroke-linecap: butt; stroke-dashoffset: 0; stroke-linejoin: miter; stroke-miterlimit: 4; fill: rgb(240,240,240); fill-rule: nonzero; opacity: 1;" vector-effect="non-scaling-stroke"  transform=" translate(0, 0)" d="M 0 -15.77287 C 8.70662 -15.77287 15.77287 -8.70662 15.77287 0 C 15.77287 8.70662 8.70662 15.77287 0 15.77287 C -8.70662 15.77287 -15.77287 8.70662 -15.77287 0 C -15.77287 -8.70662 -8.70662 -15.77287 0 -15.77287 z" stroke-linecap="round" />
</g>
<g transform="matrix(0.95 0 0 0.025 160 44.5)" id="-TFPQ1KiZ-KqWPAeZu2aj"  >
<path style="stroke: rgb(23,27,215); stroke-width: 0; stroke-dasharray: none; stroke-linecap: butt; stroke-dashoffset: 0; stroke-linejoin: miter; stroke-miterlimit: 4; fill: rgb(1,0,0); fill-rule: nonzero; opacity: 1;" vector-effect="non-scaling-stroke"  transform=" translate(0, 0)" d="M 0 -20 C 11.04 -20 20 -11.04 20 0 C 20 11.04 11.04 20 0 20 C -11.04 20 -20 11.04 -20 0 C -20 -11.04 -11.04 -20 0 -20 z" stroke-linecap="round" />
</g>
<g transform="matrix(0.508206422 0 0 0.3384582684 96 46.5)" id="7NWUbWRg6XAWNxujCryzA"  >
<path style="stroke: rgb(23,27,215); stroke-width: 0; stroke-dasharray: none; stroke-linecap: butt; stroke-dashoffset: 0; stroke-linejoin: miter; stroke-miterlimit: 4; fill: rgb(246,0,98); fill-rule: nonzero; opacity: 1;" vector-effect="non-scaling-stroke"  transform=" translate(-15.741635, -7.386435)" d="M 15.74163 14.77287 C 7.370880000000001 14.77287 0.5163900000000012 8.241299999999999 0 0 L 31.48327 0 C 30.96687 8.2413 24.11238 14.77287 15.74164 14.77287 z" stroke-linecap="round" />
</g>
<g transform="matrix(0.762309633 0 0 0.6769165369 160 49)" id="NJml21_V_DlWGwe3WRwIN"  >
<path style="stroke: rgb(23,27,215); stroke-width: 0; stroke-dasharray: none; stroke-linecap: butt; stroke-dashoffset: 0; stroke-linejoin: miter; stroke-miterlimit: 4; fill: rgb(246,0,98); fill-rule: nonzero; opacity: 1;" vector-effect="non-scaling-stroke"  transform=" translate(-15.741635, -7.386435)" d="M 15.74163 14.77287 C 7.370880000000001 14.77287 0.5163900000000012 8.241299999999999 0 0 L 31.48327 0 C 30.96687 8.2413 24.11238 14.77287 15.74164 14.77287 z" stroke-linecap="round" />
</g>
<g transform="matrix(1.1117015482 0 0 1.0153748053 224 52)" id="2OnCuxLaYzddPZoKrDbfQ"  >
<path style="stroke: rgb(23,27,215); stroke-width: 0; stroke-dasharray: none; stroke-linecap: butt; stroke-dashoffset: 0; stroke-linejoin: miter; stroke-miterlimit: 4; fill: rgb(0,0,0); fill-rule: nonzero; opacity: 1;" vector-effect="non-scaling-stroke"  transform=" translate(-15.741635, -7.386435)" d="M 15.74163 14.77287 C 7.370880000000001 14.77287 0.5163900000000012 8.241299999999999 0 0 L 31.48327 0 C 30.96687 8.2413 24.11238 14.77287 15.74164 14.77287 z" stroke-linecap="round" />
</g>
<g transform="matrix(0.762309633 0 0 0.6769165369 223.9999999997 49.0000000002)" id="C1WF41DH0R4sBPuvjTrTM"  >
<path style="stroke: rgb(23,27,215); stroke-width: 0; stroke-dasharray: none; stroke-linecap: butt; stroke-dashoffset: 0; stroke-linejoin: miter; stroke-miterlimit: 4; fill: rgb(0,0,0); fill-rule: nonzero; opacity: 1;" vector-effect="non-scaling-stroke"  transform=" translate(-15.741635, -7.386435)" d="M 15.74163 14.77287 C 7.370880000000001 14.77287 0.5163900000000012 8.241299999999999 0 0 L 31.48327 0 C 30.96687 8.2413 24.11238 14.77287 15.74164 14.77287 z" stroke-linecap="round" />
</g>
<g transform="matrix(0.762309633 0 0 0.8799914979 224 53.5)" id="zTk71sPQdBwXfk6wpvAvI"  >
<path style="stroke: rgb(23,27,215); stroke-width: 0; stroke-dasharray: none; stroke-linecap: butt; stroke-dashoffset: 0; stroke-linejoin: miter; stroke-miterlimit: 4; fill: rgb(246,0,98); fill-rule: nonzero; opacity: 1;" vector-effect="non-scaling-stroke"  transform=" translate(-15.741635, -7.386435)" d="M 15.74163 14.77287 C 7.370880000000001 14.77287 0.5163900000000012 8.241299999999999 0 0 L 31.48327 0 C 30.96687 8.2413 24.11238 14.77287 15.74164 14.77287 z" stroke-linecap="round" />
</g>
<g transform="matrix(0.762309633 0 0 -0.2030749611 224 45.5)" id="eIxcuqh1roysMrHvOrOUa"  >
<path style="stroke: rgb(23,27,215); stroke-width: 0; stroke-dasharray: none; stroke-linecap: butt; stroke-dashoffset: 0; stroke-linejoin: miter; stroke-miterlimit: 4; fill: rgb(246,0,98); fill-rule: nonzero; opacity: 1;" vector-effect="non-scaling-stroke"  transform=" translate(-15.741635, -7.386435)" d="M 15.74163 14.77287 C 7.370880000000001 14.77287 0.5163900000000012 8.241299999999999 0 0 L 31.48327 0 C 30.96687 8.2413 24.11238 14.77287 15.74164 14.77287 z" stroke-linecap="round" />
</g>
<g transform="matrix(0.3209876543 0 0 0.4429301533 224 15)" id="QIg7_rYEK_2eZY468uxXG"  >
<g style="" vector-effect="non-scaling-stroke"   >
		<g transform="matrix(1 0 0 1 0 21.05)" id="HgVAuhaD89e_Oz3F9wEgD"  >
<path style="stroke: none; stroke-width: 1; stroke-dasharray: none; stroke-linecap: butt; stroke-dashoffset: 0; stroke-linejoin: miter; stroke-miterlimit: 4; fill: rgb(179,181,179); fill-rule: nonzero; opacity: 1;" vector-effect="non-scaling-stroke"  transform=" translate(-40, -61.1)" d="M 40 53.3 C 35.7 53.3 32.2 56.8 32.2 61.099999999999994 C 32.2 65.39999999999999 35.7 68.89999999999999 40 68.89999999999999 C 44.3 68.89999999999999 47.8 65.39999999999999 47.8 61.099999999999994 C 47.8 56.8 44.3 53.3 40 53.3 z" stroke-linecap="round" />
</g>
		<g transform="matrix(1 0 0 1 0 20.95)" id="UPcxdLGNnnqIgQC7RIYRU"  >
<path style="stroke: none; stroke-width: 1; stroke-dasharray: none; stroke-linecap: butt; stroke-dashoffset: 0; stroke-linejoin: miter; stroke-miterlimit: 4; fill: rgb(255,255,255); fill-rule: nonzero; opacity: 1;" vector-effect="non-scaling-stroke"  transform=" translate(-40, -61)" d="M 43 61 C 43 62.6 41.7 64 40 64 C 38.3 64 37 62.7 37 61 C 37 59.4 38.3 58 40 58 C 41.7 58 43 59.4 43 61 z" stroke-linecap="round" />
</g>
		<g transform="matrix(1 0 0 1 0 6.9)" id="HrSUp0-eAzLzl21P56Hsy"  >
<path style="stroke: none; stroke-width: 1; stroke-dasharray: none; stroke-linecap: butt; stroke-dashoffset: 0; stroke-linejoin: miter; stroke-miterlimit: 4; fill: rgb(179,181,179); fill-rule: nonzero; opacity: 1;" vector-effect="non-scaling-stroke"  transform=" translate(-40, -46.95)" d="M 40 41.8 C 46.3 41.8 52.2 44.199999999999996 56.6 48.699999999999996 L 53.2 52.099999999999994 C 49.7 48.599999999999994 45 46.599999999999994 40 46.599999999999994 C 35 46.599999999999994 30.3 48.49999999999999 26.8 52.099999999999994 L 23.400000000000002 48.699999999999996 C 27.8 44.3 33.7 41.8 40 41.8 z" stroke-linecap="round" />
</g>
		<g transform="matrix(1 0 0 1 0 -5.75)" id="M9YJjrQmTtFeQHtmDGUEf"  >
<path style="stroke: none; stroke-width: 1; stroke-dasharray: none; stroke-linecap: butt; stroke-dashoffset: 0; stroke-linejoin: miter; stroke-miterlimit: 4; fill: rgb(179,181,179); fill-rule: nonzero; opacity: 1;" vector-effect="non-scaling-stroke"  transform=" translate(-40, -34.3)" d="M 40 26.8 C 50.6 26.8 60.6 30.9 68.1 38.4 L 64.69999999999999 41.8 C 58.1 35.3 49.3 31.6 40 31.6 C 30.700000000000003 31.6 21.9 35.2 15.3 41.8 L 11.9 38.4 C 19.4 30.9 29.4 26.8 40 26.8 z" stroke-linecap="round" />
</g>
		<g transform="matrix(1 0 0 1 0 -18.85)" id="3Iw0YUENZgM18DFvsArAG"  >
<path style="stroke: none; stroke-width: 1; stroke-dasharray: none; stroke-linecap: butt; stroke-dashoffset: 0; stroke-linejoin: miter; stroke-miterlimit: 4; fill: rgb(179,181,179); fill-rule: nonzero; opacity: 1;" vector-effect="non-scaling-stroke"  transform=" translate(-40, -21.2)" d="M 40 11.2 C 55.1 11.2 69.3 17.1 80 27.8 L 76.6 31.2 C 66.8 21.4 53.8 16 40 16 C 26.200000000000003 16 13.2 21.4 3.4 31.1 L 0 27.7 C 10.7 17 24.9 11.2 40 11.2 z" stroke-linecap="round" />
</g>
</g>
</g>
<g transform="matrix(0.3209876543 0 0 0.3236797274 32 10.5)" id="bgRVTNG_moCwuts6S1tTX"  >
<g style="" vector-effect="non-scaling-stroke"   >
		<g transform="matrix(1 0 0 1 0 21.05)" id="-jMkTtFZenIsfFHDGZePZ"  >
<path style="stroke: none; stroke-width: 1; stroke-dasharray: none; stroke-linecap: butt; stroke-dashoffset: 0; stroke-linejoin: miter; stroke-miterlimit: 4; fill: rgb(179,181,179); fill-rule: nonzero; opacity: 1;" vector-effect="non-scaling-stroke"  transform=" translate(-40, -61.1)" d="M 40 53.3 C 35.7 53.3 32.2 56.8 32.2 61.099999999999994 C 32.2 65.39999999999999 35.7 68.89999999999999 40 68.89999999999999 C 44.3 68.89999999999999 47.8 65.39999999999999 47.8 61.099999999999994 C 47.8 56.8 44.3 53.3 40 53.3 z" stroke-linecap="round" />
</g>
		<g transform="matrix(1 0 0 1 0 20.95)" id="yWokLnxbE4JYiFKzjLrxk"  >
<path style="stroke: none; stroke-width: 1; stroke-dasharray: none; stroke-linecap: butt; stroke-dashoffset: 0; stroke-linejoin: miter; stroke-miterlimit: 4; fill: rgb(255,255,255); fill-rule: nonzero; opacity: 1;" vector-effect="non-scaling-stroke"  transform=" translate(-40, -61)" d="M 43 61 C 43 62.6 41.7 64 40 64 C 38.3 64 37 62.7 37 61 C 37 59.4 38.3 58 40 58 C 41.7 58 43 59.4 43 61 z" stroke-linecap="round" />
</g>
		<g transform="matrix(1 0 0 1 0 6.9)" id="zpL8xbpKBP0WrsCkSHhpA"  >
<path style="stroke: none; stroke-width: 1; stroke-dasharray: none; stroke-linecap: butt; stroke-dashoffset: 0; stroke-linejoin: miter; stroke-miterlimit: 4; fill: rgb(179,181,179); fill-rule: nonzero; opacity: 1;" vector-effect="non-scaling-stroke"  transform=" translate(-40, -46.95)" d="M 40 41.8 C 46.3 41.8 52.2 44.199999999999996 56.6 48.699999999999996 L 53.2 52.099999999999994 C 49.7 48.599999999999994 45 46.599999999999994 40 46.599999999999994 C 35 46.599999999999994 30.3 48.49999999999999 26.8 52.099999999999994 L 23.400000000000002 48.699999999999996 C 27.8 44.3 33.7 41.8 40 41.8 z" stroke-linecap="round" />
</g>
		<g transform="matrix(1 0 0 1 0 -5.75)" id="QM4ylcttbPYarx0fIkdpu"  >
<path style="stroke: none; stroke-width: 1; stroke-dasharray: none; stroke-linecap: butt; stroke-dashoffset: 0; stroke-linejoin: miter; stroke-miterlimit: 4; fill: rgb(179,181,179); fill-rule: nonzero; opacity: 1;" vector-effect="non-scaling-stroke"  transform=" translate(-40, -34.3)" d="M 40 26.8 C 50.6 26.8 60.6 30.9 68.1 38.4 L 64.69999999999999 41.8 C 58.1 35.3 49.3 31.6 40 31.6 C 30.700000000000003 31.6 21.9 35.2 15.3 41.8 L 11.9 38.4 C 19.4 30.9 29.4 26.8 40 26.8 z" stroke-linecap="round" />
</g>
		<g transform="matrix(1 0 0 1 0 -18.85)" id="VmAS4sP00pSLQYXOWYrIx"  >
<path style="stroke: none; stroke-width: 1; stroke-dasharray: none; stroke-linecap: butt; stroke-dashoffset: 0; stroke-linejoin: miter; stroke-miterlimit: 4; fill: rgb(179,181,179); fill-rule: nonzero; opacity: 1;" vector-effect="non-scaling-stroke"  transform=" translate(-40, -21.2)" d="M 40 11.2 C 55.1 11.2 69.3 17.1 80 27.8 L 76.6 31.2 C 66.8 21.4 53.8 16 40 16 C 26.200000000000003 16 13.2 21.4 3.4 31.1 L 0 27.7 C 10.7 17 24.9 11.2 40 11.2 z" stroke-linecap="round" />
</g>
</g>
</g>
<g transform="matrix(0.3333333333 0 0 0.3407155026 96 11.5)" id="XWvPbJZ6dMDVjgEgRfRl_"  >
<g style="" vector-effect="non-scaling-stroke"   >
		<g transform="matrix(1 0 0 1 0 21.05)" id="qHnT_bcu7YiplYGzqoJNK"  >
<path style="stroke: none; stroke-width: 1; stroke-dasharray: none; stroke-linecap: butt; stroke-dashoffset: 0; stroke-linejoin: miter; stroke-miterlimit: 4; fill: rgb(179,181,179); fill-rule: nonzero; opacity: 1;" vector-effect="non-scaling-stroke"  transform=" translate(-40, -61.1)" d="M 40 53.3 C 35.7 53.3 32.2 56.8 32.2 61.099999999999994 C 32.2 65.39999999999999 35.7 68.89999999999999 40 68.89999999999999 C 44.3 68.89999999999999 47.8 65.39999999999999 47.8 61.099999999999994 C 47.8 56.8 44.3 53.3 40 53.3 z" stroke-linecap="round" />
</g>
		<g transform="matrix(1 0 0 1 0 20.95)" id="p7oJXMb_FjVlMAaErgMPX"  >
<path style="stroke: none; stroke-width: 1; stroke-dasharray: none; stroke-linecap: butt; stroke-dashoffset: 0; stroke-linejoin: miter; stroke-miterlimit: 4; fill: rgb(255,255,255); fill-rule: nonzero; opacity: 1;" vector-effect="non-scaling-stroke"  transform=" translate(-40, -61)" d="M 43 61 C 43 62.6 41.7 64 40 64 C 38.3 64 37 62.7 37 61 C 37 59.4 38.3 58 40 58 C 41.7 58 43 59.4 43 61 z" stroke-linecap="round" />
</g>
		<g transform="matrix(1 0 0 1 0 6.9)" id="5k5XkzHfYtTb8VU6iXoUb"  >
<path style="stroke: none; stroke-width: 1; stroke-dasharray: none; stroke-linecap: butt; stroke-dashoffset: 0; stroke-linejoin: miter; stroke-miterlimit: 4; fill: rgb(179,181,179); fill-rule: nonzero; opacity: 1;" vector-effect="non-scaling-stroke"  transform=" translate(-40, -46.95)" d="M 40 41.8 C 46.3 41.8 52.2 44.199999999999996 56.6 48.699999999999996 L 53.2 52.099999999999994 C 49.7 48.599999999999994 45 46.599999999999994 40 46.599999999999994 C 35 46.599999999999994 30.3 48.49999999999999 26.8 52.099999999999994 L 23.400000000000002 48.699999999999996 C 27.8 44.3 33.7 41.8 40 41.8 z" stroke-linecap="round" />
</g>
		<g transform="matrix(1 0 0 1 0 -5.75)" id="EtlhDEJ78mhNhHdOjatoY"  >
<path style="stroke: none; stroke-width: 1; stroke-dasharray: none; stroke-linecap: butt; stroke-dashoffset: 0; stroke-linejoin: miter; stroke-miterlimit: 4; fill: rgb(179,181,179); fill-rule: nonzero; opacity: 1;" vector-effect="non-scaling-stroke"  transform=" translate(-40, -34.3)" d="M 40 26.8 C 50.6 26.8 60.6 30.9 68.1 38.4 L 64.69999999999999 41.8 C 58.1 35.3 49.3 31.6 40 31.6 C 30.700000000000003 31.6 21.9 35.2 15.3 41.8 L 11.9 38.4 C 19.4 30.9 29.4 26.8 40 26.8 z" stroke-linecap="round" />
</g>
		<g transform="matrix(1 0 0 1 0 -18.85)" id="3CWDd3efTi0ziltRIVrkG"  >
<path style="stroke: none; stroke-width: 1; stroke-dasharray: none; stroke-linecap: butt; stroke-dashoffset: 0; stroke-linejoin: miter; stroke-miterlimit: 4; fill: rgb(179,181,179); fill-rule: nonzero; opacity: 1;" vector-effect="non-scaling-stroke"  transform=" translate(-40, -21.2)" d="M 40 11.2 C 55.1 11.2 69.3 17.1 80 27.8 L 76.6 31.2 C 66.8 21.4 53.8 16 40 16 C 26.200000000000003 16 13.2 21.4 3.4 31.1 L 0 27.7 C 10.7 17 24.9 11.2 40 11.2 z" stroke-linecap="round" />
</g>
</g>
</g>
<g transform="matrix(0.3580246914 0 0 0.3577512777 160 11.5)" id="-ZkH1VhzKr99xFlCQ6obU"  >
<g style="" vector-effect="non-scaling-stroke"   >
		<g transform="matrix(1 0 0 1 0 21.05)" id="AXfpTTIkrPCa7oz7igM2f"  >
<path style="stroke: none; stroke-width: 1; stroke-dasharray: none; stroke-linecap: butt; stroke-dashoffset: 0; stroke-linejoin: miter; stroke-miterlimit: 4; fill: rgb(179,181,179); fill-rule: nonzero; opacity: 1;" vector-effect="non-scaling-stroke"  transform=" translate(-40, -61.1)" d="M 40 53.3 C 35.7 53.3 32.2 56.8 32.2 61.099999999999994 C 32.2 65.39999999999999 35.7 68.89999999999999 40 68.89999999999999 C 44.3 68.89999999999999 47.8 65.39999999999999 47.8 61.099999999999994 C 47.8 56.8 44.3 53.3 40 53.3 z" stroke-linecap="round" />
</g>
		<g transform="matrix(1 0 0 1 0 20.95)" id="Zq1YomojCBw7QyM4bkqwH"  >
<path style="stroke: none; stroke-width: 1; stroke-dasharray: none; stroke-linecap: butt; stroke-dashoffset: 0; stroke-linejoin: miter; stroke-miterlimit: 4; fill: rgb(255,255,255); fill-rule: nonzero; opacity: 1;" vector-effect="non-scaling-stroke"  transform=" translate(-40, -61)" d="M 43 61 C 43 62.6 41.7 64 40 64 C 38.3 64 37 62.7 37 61 C 37 59.4 38.3 58 40 58 C 41.7 58 43 59.4 43 61 z" stroke-linecap="round" />
</g>
		<g transform="matrix(1 0 0 1 0 6.9)" id="vcLj7liH0XaAFSoJsi_0I"  >
<path style="stroke: none; stroke-width: 1; stroke-dasharray: none; stroke-linecap: butt; stroke-dashoffset: 0; stroke-linejoin: miter; stroke-miterlimit: 4; fill: rgb(179,181,179); fill-rule: nonzero; opacity: 1;" vector-effect="non-scaling-stroke"  transform=" translate(-40, -46.95)" d="M 40 41.8 C 46.3 41.8 52.2 44.199999999999996 56.6 48.699999999999996 L 53.2 52.099999999999994 C 49.7 48.599999999999994 45 46.599999999999994 40 46.599999999999994 C 35 46.599999999999994 30.3 48.49999999999999 26.8 52.099999999999994 L 23.400000000000002 48.699999999999996 C 27.8 44.3 33.7 41.8 40 41.8 z" stroke-linecap="round" />
</g>
		<g transform="matrix(1 0 0 1 0 -5.75)" id="0jnkIvU8NsuSm0gavJv-n"  >
<path style="stroke: none; stroke-width: 1; stroke-dasharray: none; stroke-linecap: butt; stroke-dashoffset: 0; stroke-linejoin: miter; stroke-miterlimit: 4; fill: rgb(179,181,179); fill-rule: nonzero; opacity: 1;" vector-effect="non-scaling-stroke"  transform=" translate(-40, -34.3)" d="M 40 26.8 C 50.6 26.8 60.6 30.9 68.1 38.4 L 64.69999999999999 41.8 C 58.1 35.3 49.3 31.6 40 31.6 C 30.700000000000003 31.6 21.9 35.2 15.3 41.8 L 11.9 38.4 C 19.4 30.9 29.4 26.8 40 26.8 z" stroke-linecap="round" />
</g>
		<g transform="matrix(1 0 0 1 0 -18.85)" id="4pA0_xn9BeDtG2Ts_KeYI"  >
<path style="stroke: none; stroke-width: 1; stroke-dasharray: none; stroke-linecap: butt; stroke-dashoffset: 0; stroke-linejoin: miter; stroke-miterlimit: 4; fill: rgb(179,181,179); fill-rule: nonzero; opacity: 1;" vector-effect="non-scaling-stroke"  transform=" translate(-40, -21.2)" d="M 40 11.2 C 55.1 11.2 69.3 17.1 80 27.8 L 76.6 31.2 C 66.8 21.4 53.8 16 40 16 C 26.200000000000003 16 13.2 21.4 3.4 31.1 L 0 27.7 C 10.7 17 24.9 11.2 40 11.2 z" stroke-linecap="round" />
</g>
</g>
</g>
<g transform="matrix(-0.0053297825 0 0 0.0316666607 195 31.5)" id="W4vqFBMACI9Wrm9d8nji9"  >
<linearGradient id="SVGID_174" gradientUnits="userSpaceOnUse" gradientTransform="matrix(1 0 0 1 112.3747309207 -0.0001136547)"  x1="94.61875355392317" y1="579.156444779823" x2="184.1923457599862" y2="25.714054524153482">
<stop offset="3.0700000000000003%" style="stop-color:#FF0003;stop-opacity: 1"/>
<stop offset="100%" style="stop-color:#040003;stop-opacity: 1"/>
</linearGradient>
<path style="stroke: none; stroke-width: 1; stroke-dasharray: none; stroke-linecap: butt; stroke-dashoffset: 0; stroke-linejoin: miter; stroke-miterlimit: 4; fill: url(#SVGID_174); fill-rule: nonzero; opacity: 1;" vector-effect="non-scaling-stroke"  transform=" translate(-299.9996472459, -299.9999431727)" d="M 187.615 600 C 186.812 600 185.982 600 185.178 599.963 C 123.815 599.5 91.026 528.7909999999999 127.848 479.65 C 165.401 429.606 187.614 367.39099999999996 187.614 300.009 C 187.614 232.591 165.401 170.411 127.84800000000001 120.33100000000002 C 91.026 71.227 123.815 0.519 185.179 0.018 C 190.029 -0.043 194.903 0.055999999999999994 199.801 0.22599999999999998 C 228.15499999999997 1.384 255.522 6.502 281.39 15.079999999999998 C 397.366 53.657 482.83 161.724 487.423 288.87199999999996 C 493.601 459.594 356.961 600 187.615 600 z" stroke-linecap="round" />
</g>
<g transform="matrix(0.0053297825 0 0 0.0316666607 253 31.5)" id="E2X3bIUb_DvdaeVw5gnjP"  >
<linearGradient id="SVGID_176" gradientUnits="userSpaceOnUse" gradientTransform="matrix(1 0 0 1 112.3747309207 -0.0001136547)"  x1="94.61875355392317" y1="579.156444779823" x2="184.1923457599862" y2="25.714054524153482">
<stop offset="3.0700000000000003%" style="stop-color:#FF0003;stop-opacity: 1"/>
<stop offset="100%" style="stop-color:#040003;stop-opacity: 1"/>
</linearGradient>
<path style="stroke: none; stroke-width: 1; stroke-dasharray: none; stroke-linecap: butt; stroke-dashoffset: 0; stroke-linejoin: miter; stroke-miterlimit: 4; fill: url(#SVGID_176); fill-rule: nonzero; opacity: 1;" vector-effect="non-scaling-stroke"  transform=" translate(-299.9996472459, -299.9999431727)" d="M 187.615 600 C 186.812 600 185.982 600 185.178 599.963 C 123.815 599.5 91.026 528.7909999999999 127.848 479.65 C 165.401 429.606 187.614 367.39099999999996 187.614 300.009 C 187.614 232.591 165.401 170.411 127.84800000000001 120.33100000000002 C 91.026 71.227 123.815 0.519 185.179 0.018 C 190.029 -0.043 194.903 0.055999999999999994 199.801 0.22599999999999998 C 228.15499999999997 1.384 255.522 6.502 281.39 15.079999999999998 C 397.366 53.657 482.83 161.724 487.423 288.87199999999996 C 493.601 459.594 356.961 600 187.615 600 z" stroke-linecap="round" />
</g>
<g transform="matrix(0.0053297825 0 0 0.0316666607 189 32.0000000095)" id="una0qO7IadGVfFWG3pvIO"  >
<linearGradient id="SVGID_320" gradientUnits="userSpaceOnUse" gradientTransform="matrix(1 0 0 1 112.3747309207 -0.0001136547)"  x1="-40.53394707470429" y1="282.66945" x2="536.5051470747043" y2="282.66945">
<stop offset="3.0700000000000003%" style="stop-color:#000000;stop-opacity: 1"/>
<stop offset="100%" style="stop-color:#FF83D0;stop-opacity: 1"/>
</linearGradient>
<path style="stroke: none; stroke-width: 1; stroke-dasharray: none; stroke-linecap: butt; stroke-dashoffset: 0; stroke-linejoin: miter; stroke-miterlimit: 4; fill: url(#SVGID_320); fill-rule: nonzero; opacity: 1;" vector-effect="non-scaling-stroke"  transform=" translate(-299.9996472459, -299.9999431727)" d="M 187.615 600 C 186.812 600 185.982 600 185.178 599.963 C 123.815 599.5 91.026 528.7909999999999 127.848 479.65 C 165.401 429.606 187.614 367.39099999999996 187.614 300.009 C 187.614 232.591 165.401 170.411 127.84800000000001 120.33100000000002 C 91.026 71.227 123.815 0.519 185.179 0.018 C 190.029 -0.043 194.903 0.055999999999999994 199.801 0.22599999999999998 C 228.15499999999997 1.384 255.522 6.502 281.39 15.079999999999998 C 397.366 53.657 482.83 161.724 487.423 288.87199999999996 C 493.601 459.594 356.961 600 187.615 600 z" stroke-linecap="round" />
</g>
<g transform="matrix(-0.0053297825 0 0 0.0316666607 131 31.5)" id="ElllUJxBzDu3uBaq4VrHO"  >
<linearGradient id="SVGID_366" gradientUnits="userSpaceOnUse" gradientTransform="matrix(1 0 0 1 112.3747309207 -0.0001136547)"  x1="-40.53394707470429" y1="282.66945" x2="536.5051470747043" y2="282.66945">
<stop offset="3.0700000000000003%" style="stop-color:#000000;stop-opacity: 1"/>
<stop offset="100%" style="stop-color:#FF83D0;stop-opacity: 1"/>
</linearGradient>
<path style="stroke: none; stroke-width: 1; stroke-dasharray: none; stroke-linecap: butt; stroke-dashoffset: 0; stroke-linejoin: miter; stroke-miterlimit: 4; fill: url(#SVGID_366); fill-rule: nonzero; opacity: 1;" vector-effect="non-scaling-stroke"  transform=" translate(-299.9996472459, -299.9999431727)" d="M 187.615 600 C 186.812 600 185.982 600 185.178 599.963 C 123.815 599.5 91.026 528.7909999999999 127.848 479.65 C 165.401 429.606 187.614 367.39099999999996 187.614 300.009 C 187.614 232.591 165.401 170.411 127.84800000000001 120.33100000000002 C 91.026 71.227 123.815 0.519 185.179 0.018 C 190.029 -0.043 194.903 0.055999999999999994 199.801 0.22599999999999998 C 228.15499999999997 1.384 255.522 6.502 281.39 15.079999999999998 C 397.366 53.657 482.83 161.724 487.423 288.87199999999996 C 493.601 459.594 356.961 600 187.615 600 z" stroke-linecap="round" />
</g>
<g transform="matrix(0.0053297825 0 0 0.0316666607 125 31.500000019)" id="BQ8xkMMKoFuddhIj0RXfX"  >
<linearGradient id="SVGID_369" gradientUnits="userSpaceOnUse" gradientTransform="matrix(1 0 0 1 112.3747309207 -0.0001136547)"  x1="-40.53394707470429" y1="282.66945" x2="536.5051470747043" y2="282.66945">
<stop offset="3.0700000000000003%" style="stop-color:#000000;stop-opacity: 1"/>
<stop offset="100%" style="stop-color:#FF83D0;stop-opacity: 1"/>
</linearGradient>
<path style="stroke: none; stroke-width: 1; stroke-dasharray: none; stroke-linecap: butt; stroke-dashoffset: 0; stroke-linejoin: miter; stroke-miterlimit: 4; fill: url(#SVGID_369); fill-rule: nonzero; opacity: 1;" vector-effect="non-scaling-stroke"  transform=" translate(-299.9996472459, -299.9999431727)" d="M 187.615 600 C 186.812 600 185.982 600 185.178 599.963 C 123.815 599.5 91.026 528.7909999999999 127.848 479.65 C 165.401 429.606 187.614 367.39099999999996 187.614 300.009 C 187.614 232.591 165.401 170.411 127.84800000000001 120.33100000000002 C 91.026 71.227 123.815 0.519 185.179 0.018 C 190.029 -0.043 194.903 0.055999999999999994 199.801 0.22599999999999998 C 228.15499999999997 1.384 255.522 6.502 281.39 15.079999999999998 C 397.366 53.657 482.83 161.724 487.423 288.87199999999996 C 493.601 459.594 356.961 600 187.615 600 z" stroke-linecap="round" />
</g>
<g transform="matrix(-0.0053297825 0 0 0.0316666607 67 31.0000000095)" id="MEAvy7RW0NCIxYkjIU-S0"  >
<linearGradient id="SVGID_370" gradientUnits="userSpaceOnUse" gradientTransform="matrix(1 0 0 1 112.3747309207 -0.0001136547)"  x1="-40.53394707470429" y1="282.66945" x2="536.5051470747043" y2="282.66945">
<stop offset="3.0700000000000003%" style="stop-color:#000000;stop-opacity: 1"/>
<stop offset="100%" style="stop-color:#FF83D0;stop-opacity: 1"/>
</linearGradient>
<path style="stroke: none; stroke-width: 1; stroke-dasharray: none; stroke-linecap: butt; stroke-dashoffset: 0; stroke-linejoin: miter; stroke-miterlimit: 4; fill: url(#SVGID_370); fill-rule: nonzero; opacity: 1;" vector-effect="non-scaling-stroke"  transform=" translate(-299.9996472459, -299.9999431727)" d="M 187.615 600 C 186.812 600 185.982 600 185.178 599.963 C 123.815 599.5 91.026 528.7909999999999 127.848 479.65 C 165.401 429.606 187.614 367.39099999999996 187.614 300.009 C 187.614 232.591 165.401 170.411 127.84800000000001 120.33100000000002 C 91.026 71.227 123.815 0.519 185.179 0.018 C 190.029 -0.043 194.903 0.055999999999999994 199.801 0.22599999999999998 C 228.15499999999997 1.384 255.522 6.502 281.39 15.079999999999998 C 397.366 53.657 482.83 161.724 487.423 288.87199999999996 C 493.601 459.594 356.961 600 187.615 600 z" stroke-linecap="round" />
</g>
<g transform="matrix(0.0053297825 0 0 0.0316666607 61 31.2500000047)" id="TsEutuWjl5kb7OCOFOuoI"  >
<linearGradient id="SVGID_371" gradientUnits="userSpaceOnUse" gradientTransform="matrix(1 0 0 1 112.3747309207 -0.0001136547)"  x1="-40.53394707470429" y1="282.66945" x2="536.5051470747043" y2="282.66945">
<stop offset="3.0700000000000003%" style="stop-color:#000000;stop-opacity: 1"/>
<stop offset="100%" style="stop-color:#FF83D0;stop-opacity: 1"/>
</linearGradient>
<path style="stroke: none; stroke-width: 1; stroke-dasharray: none; stroke-linecap: butt; stroke-dashoffset: 0; stroke-linejoin: miter; stroke-miterlimit: 4; fill: url(#SVGID_371); fill-rule: nonzero; opacity: 1;" vector-effect="non-scaling-stroke"  transform=" translate(-299.9996472459, -299.9999431727)" d="M 187.615 600 C 186.812 600 185.982 600 185.178 599.963 C 123.815 599.5 91.026 528.7909999999999 127.848 479.65 C 165.401 429.606 187.614 367.39099999999996 187.614 300.009 C 187.614 232.591 165.401 170.411 127.84800000000001 120.33100000000002 C 91.026 71.227 123.815 0.519 185.179 0.018 C 190.029 -0.043 194.903 0.055999999999999994 199.801 0.22599999999999998 C 228.15499999999997 1.384 255.522 6.502 281.39 15.079999999999998 C 397.366 53.657 482.83 161.724 487.423 288.87199999999996 C 493.601 459.594 356.961 600 187.615 600 z" stroke-linecap="round" />
</g>
<g transform="matrix(-0.0053297825 0 0 0.0316666607 3 30.7499999953)" id="4uztuOB0l-0kJ3EU9MJ1n"  >
<linearGradient id="SVGID_372" gradientUnits="userSpaceOnUse" gradientTransform="matrix(1 0 0 1 112.3747309207 -0.0001136547)"  x1="-40.53394707470429" y1="282.66945" x2="536.5051470747043" y2="282.66945">
<stop offset="3.0700000000000003%" style="stop-color:#000000;stop-opacity: 1"/>
<stop offset="100%" style="stop-color:#FF83D0;stop-opacity: 1"/>
</linearGradient>
<path style="stroke: none; stroke-width: 1; stroke-dasharray: none; stroke-linecap: butt; stroke-dashoffset: 0; stroke-linejoin: miter; stroke-miterlimit: 4; fill: url(#SVGID_372); fill-rule: nonzero; opacity: 1;" vector-effect="non-scaling-stroke"  transform=" translate(-299.9996472459, -299.9999431727)" d="M 187.615 600 C 186.812 600 185.982 600 185.178 599.963 C 123.815 599.5 91.026 528.7909999999999 127.848 479.65 C 165.401 429.606 187.614 367.39099999999996 187.614 300.009 C 187.614 232.591 165.401 170.411 127.84800000000001 120.33100000000002 C 91.026 71.227 123.815 0.519 185.179 0.018 C 190.029 -0.043 194.903 0.055999999999999994 199.801 0.22599999999999998 C 228.15499999999997 1.384 255.522 6.502 281.39 15.079999999999998 C 397.366 53.657 482.83 161.724 487.423 288.87199999999996 C 493.601 459.594 356.961 600 187.615 600 z" stroke-linecap="round" />
</g>
</svg>